<mxfile host="app.diagrams.net" modified="2024-05-06T01:48:09.116Z" agent="Mozilla/5.0 (Windows NT 10.0; Win64; x64) AppleWebKit/537.36 (KHTML, like Gecko) Chrome/121.0.0.0 Safari/537.36 OPR/107.0.0.0" version="24.3.1" etag="10P2DUHYQZpl8HHo89x4" type="github">
  <diagram name="PÃ¡gina-1" id="zvERBl2cUAoheOISWPo3">
    <mxGraphModel>
      <root>
        <mxCell id="0" />
        <mxCell id="1" parent="0" />
      </root>
    </mxGraphModel>
  </diagram>
</mxfile>
